<svg xmlns="http://www.w3.org/2000/svg" xmlns:xlink="http://www.w3.org/1999/xlink" width="200" zoomAndPan="magnify" viewBox="0 0 150 74.999997" height="100" preserveAspectRatio="xMidYMid meet" version="1.0"><defs><g/></defs><g fill="#ffffff" fill-opacity="1"><g transform="translate(2.092419, 48.564842)"><g><path d="M 18.484375 -22.890625 L 18.484375 -18.421875 L 12.421875 -18.421875 L 12.421875 0 L 6.84375 0 L 6.84375 -18.421875 L 0.78125 -18.421875 L 0.78125 -22.890625 Z M 18.484375 -22.890625 "/></g></g></g><g fill="#ffffff" fill-opacity="1"><g transform="translate(21.36621, 48.564842)"><g><path d="M 4.828125 -20.09375 C 3.847656 -20.09375 3.046875 -20.378906 2.421875 -20.953125 C 1.804688 -21.523438 1.5 -22.238281 1.5 -23.09375 C 1.5 -23.957031 1.804688 -24.675781 2.421875 -25.25 C 3.046875 -25.832031 3.847656 -26.125 4.828125 -26.125 C 5.785156 -26.125 6.570312 -25.832031 7.1875 -25.25 C 7.8125 -24.675781 8.125 -23.957031 8.125 -23.09375 C 8.125 -22.238281 7.8125 -21.523438 7.1875 -20.953125 C 6.570312 -20.378906 5.785156 -20.09375 4.828125 -20.09375 Z M 7.59375 -18.203125 L 7.59375 0 L 2.015625 0 L 2.015625 -18.203125 Z M 7.59375 -18.203125 "/></g></g></g><g fill="#4b47ff" fill-opacity="1"><g transform="translate(30.992047, 48.564842)"><g><path d="M 25.234375 -18.390625 C 27.492188 -18.390625 29.289062 -17.703125 30.625 -16.328125 C 31.96875 -14.960938 32.640625 -13.0625 32.640625 -10.625 L 32.640625 0 L 27.09375 0 L 27.09375 -9.875 C 27.09375 -11.050781 26.78125 -11.957031 26.15625 -12.59375 C 25.539062 -13.238281 24.691406 -13.5625 23.609375 -13.5625 C 22.523438 -13.5625 21.671875 -13.238281 21.046875 -12.59375 C 20.429688 -11.957031 20.125 -11.050781 20.125 -9.875 L 20.125 0 L 14.578125 0 L 14.578125 -9.875 C 14.578125 -11.050781 14.265625 -11.957031 13.640625 -12.59375 C 13.023438 -13.238281 12.175781 -13.5625 11.09375 -13.5625 C 10 -13.5625 9.140625 -13.238281 8.515625 -12.59375 C 7.898438 -11.957031 7.59375 -11.050781 7.59375 -9.875 L 7.59375 0 L 2.015625 0 L 2.015625 -18.203125 L 7.59375 -18.203125 L 7.59375 -15.90625 C 8.164062 -16.675781 8.90625 -17.28125 9.8125 -17.71875 C 10.726562 -18.164062 11.757812 -18.390625 12.90625 -18.390625 C 14.28125 -18.390625 15.503906 -18.09375 16.578125 -17.5 C 17.660156 -16.914062 18.503906 -16.082031 19.109375 -15 C 19.742188 -16 20.601562 -16.8125 21.6875 -17.4375 C 22.769531 -18.070312 23.953125 -18.390625 25.234375 -18.390625 Z M 25.234375 -18.390625 "/></g></g></g><g fill="#ffffff" fill-opacity="1"><g transform="translate(65.53329, 48.564842)"><g/></g></g><g fill="#ffffff" fill-opacity="1"><g transform="translate(72.447068, 48.564842)"><g><path d="M 33.515625 -22.890625 L 27.5625 0 L 20.8125 0 L 17.15625 -15.0625 L 13.375 0 L 6.625 0 L 0.8125 -22.890625 L 6.78125 -22.890625 L 10.078125 -6.234375 L 14.15625 -22.890625 L 20.28125 -22.890625 L 24.203125 -6.234375 L 27.515625 -22.890625 Z M 33.515625 -22.890625 "/></g></g></g><g fill="#ffffff" fill-opacity="1"><g transform="translate(106.755068, 48.564842)"><g><path d="M 4.828125 -20.09375 C 3.847656 -20.09375 3.046875 -20.378906 2.421875 -20.953125 C 1.804688 -21.523438 1.5 -22.238281 1.5 -23.09375 C 1.5 -23.957031 1.804688 -24.675781 2.421875 -25.25 C 3.046875 -25.832031 3.847656 -26.125 4.828125 -26.125 C 5.785156 -26.125 6.570312 -25.832031 7.1875 -25.25 C 7.8125 -24.675781 8.125 -23.957031 8.125 -23.09375 C 8.125 -22.238281 7.8125 -21.523438 7.1875 -20.953125 C 6.570312 -20.378906 5.785156 -20.09375 4.828125 -20.09375 Z M 7.59375 -18.203125 L 7.59375 0 L 2.015625 0 L 2.015625 -18.203125 Z M 7.59375 -18.203125 "/></g></g></g><g fill="#ffffff" fill-opacity="1"><g transform="translate(116.375662, 48.564842)"><g><path d="M 0.90625 -9.125 C 0.90625 -11 1.257812 -12.640625 1.96875 -14.046875 C 2.675781 -15.460938 3.640625 -16.550781 4.859375 -17.3125 C 6.078125 -18.070312 7.4375 -18.453125 8.9375 -18.453125 C 10.132812 -18.453125 11.226562 -18.203125 12.21875 -17.703125 C 13.207031 -17.203125 13.984375 -16.53125 14.546875 -15.6875 L 14.546875 -24.125 L 20.125 -24.125 L 20.125 0 L 14.546875 0 L 14.546875 -2.609375 C 14.023438 -1.734375 13.28125 -1.035156 12.3125 -0.515625 C 11.34375 0.00390625 10.21875 0.265625 8.9375 0.265625 C 7.4375 0.265625 6.078125 -0.117188 4.859375 -0.890625 C 3.640625 -1.660156 2.675781 -2.757812 1.96875 -4.1875 C 1.257812 -5.613281 0.90625 -7.257812 0.90625 -9.125 Z M 14.546875 -9.09375 C 14.546875 -10.488281 14.160156 -11.585938 13.390625 -12.390625 C 12.617188 -13.191406 11.675781 -13.59375 10.5625 -13.59375 C 9.457031 -13.59375 8.519531 -13.195312 7.75 -12.40625 C 6.976562 -11.613281 6.59375 -10.519531 6.59375 -9.125 C 6.59375 -7.738281 6.976562 -6.632812 7.75 -5.8125 C 8.519531 -5 9.457031 -4.59375 10.5625 -4.59375 C 11.675781 -4.59375 12.617188 -4.992188 13.390625 -5.796875 C 14.160156 -6.609375 14.546875 -7.707031 14.546875 -9.09375 Z M 14.546875 -9.09375 "/></g></g></g><g fill="#00bee8" fill-opacity="1"><g transform="translate(138.519413, 48.564842)"><g><path d="M 7.59375 -24.125 L 7.59375 0 L 2.015625 0 L 2.015625 -24.125 Z M 7.59375 -24.125 "/></g></g></g></svg>