<svg xmlns="http://www.w3.org/2000/svg" xmlns:xlink="http://www.w3.org/1999/xlink" width="400" zoomAndPan="magnify" viewBox="0 0 300 74.999997" height="100" preserveAspectRatio="xMidYMid meet" version="1.0"><defs><g/></defs><g fill="#ffffff" fill-opacity="1"><g transform="translate(14.218509, 58.073201)"><g><path d="M 34.390625 -42.5625 L 34.390625 -34.265625 L 23.109375 -34.265625 L 23.109375 0 L 12.734375 0 L 12.734375 -34.265625 L 1.453125 -34.265625 L 1.453125 -42.5625 Z M 34.390625 -42.5625 "/></g></g></g><g fill="#ffffff" fill-opacity="1"><g transform="translate(50.054863, 58.073201)"><g><path d="M 8.96875 -37.359375 C 7.15625 -37.359375 5.671875 -37.890625 4.515625 -38.953125 C 3.367188 -40.023438 2.796875 -41.351562 2.796875 -42.9375 C 2.796875 -44.550781 3.367188 -45.894531 4.515625 -46.96875 C 5.671875 -48.039062 7.15625 -48.578125 8.96875 -48.578125 C 10.75 -48.578125 12.210938 -48.039062 13.359375 -46.96875 C 14.515625 -45.894531 15.09375 -44.550781 15.09375 -42.9375 C 15.09375 -41.351562 14.515625 -40.023438 13.359375 -38.953125 C 12.210938 -37.890625 10.75 -37.359375 8.96875 -37.359375 Z M 14.125 -33.84375 L 14.125 0 L 3.765625 0 L 3.765625 -33.84375 Z M 14.125 -33.84375 "/></g></g></g><g fill="#4b47ff" fill-opacity="1"><g transform="translate(67.952479, 58.073201)"><g><path d="M 46.9375 -34.203125 C 51.144531 -34.203125 54.488281 -32.925781 56.96875 -30.375 C 59.457031 -27.832031 60.703125 -24.296875 60.703125 -19.765625 L 60.703125 0 L 50.390625 0 L 50.390625 -18.375 C 50.390625 -20.5625 49.8125 -22.25 48.65625 -23.4375 C 47.507812 -24.625 45.925781 -25.21875 43.90625 -25.21875 C 41.882812 -25.21875 40.296875 -24.625 39.140625 -23.4375 C 37.992188 -22.25 37.421875 -20.5625 37.421875 -18.375 L 37.421875 0 L 27.109375 0 L 27.109375 -18.375 C 27.109375 -20.5625 26.53125 -22.25 25.375 -23.4375 C 24.226562 -24.625 22.644531 -25.21875 20.625 -25.21875 C 18.59375 -25.21875 17 -24.625 15.84375 -23.4375 C 14.695312 -22.25 14.125 -20.5625 14.125 -18.375 L 14.125 0 L 3.765625 0 L 3.765625 -33.84375 L 14.125 -33.84375 L 14.125 -29.59375 C 15.175781 -31.007812 16.550781 -32.128906 18.25 -32.953125 C 19.945312 -33.785156 21.867188 -34.203125 24.015625 -34.203125 C 26.554688 -34.203125 28.828125 -33.65625 30.828125 -32.5625 C 32.835938 -31.46875 34.40625 -29.910156 35.53125 -27.890625 C 36.707031 -29.753906 38.304688 -31.269531 40.328125 -32.4375 C 42.347656 -33.613281 44.550781 -34.203125 46.9375 -34.203125 Z M 46.9375 -34.203125 "/></g></g></g><g fill="#ffffff" fill-opacity="1"><g transform="translate(132.176077, 58.073201)"><g/></g></g><g fill="#ffffff" fill-opacity="1"><g transform="translate(145.031077, 58.073201)"><g><path d="M 62.34375 -42.5625 L 51.234375 0 L 38.6875 0 L 31.890625 -28.015625 L 24.859375 0 L 12.3125 0 L 1.515625 -42.5625 L 12.609375 -42.5625 L 18.734375 -11.578125 L 26.3125 -42.5625 L 37.71875 -42.5625 L 45 -11.578125 L 51.1875 -42.5625 Z M 62.34375 -42.5625 "/></g></g></g><g fill="#ffffff" fill-opacity="1"><g transform="translate(208.821, 58.073201)"><g><path d="M 8.96875 -37.359375 C 7.15625 -37.359375 5.671875 -37.890625 4.515625 -38.953125 C 3.367188 -40.023438 2.796875 -41.351562 2.796875 -42.9375 C 2.796875 -44.550781 3.367188 -45.894531 4.515625 -46.96875 C 5.671875 -48.039062 7.15625 -48.578125 8.96875 -48.578125 C 10.75 -48.578125 12.210938 -48.039062 13.359375 -46.96875 C 14.515625 -45.894531 15.09375 -44.550781 15.09375 -42.9375 C 15.09375 -41.351562 14.515625 -40.023438 13.359375 -38.953125 C 12.210938 -37.890625 10.75 -37.359375 8.96875 -37.359375 Z M 14.125 -33.84375 L 14.125 0 L 3.765625 0 L 3.765625 -33.84375 Z M 14.125 -33.84375 "/></g></g></g><g fill="#ffffff" fill-opacity="1"><g transform="translate(226.708868, 58.073201)"><g><path d="M 1.703125 -16.984375 C 1.703125 -20.453125 2.359375 -23.5 3.671875 -26.125 C 4.984375 -28.757812 6.769531 -30.785156 9.03125 -32.203125 C 11.300781 -33.617188 13.828125 -34.328125 16.609375 -34.328125 C 18.835938 -34.328125 20.867188 -33.859375 22.703125 -32.921875 C 24.546875 -31.992188 25.992188 -30.742188 27.046875 -29.171875 L 27.046875 -44.875 L 37.421875 -44.875 L 37.421875 0 L 27.046875 0 L 27.046875 -4.84375 C 26.078125 -3.226562 24.691406 -1.9375 22.890625 -0.96875 C 21.085938 0 18.992188 0.484375 16.609375 0.484375 C 13.828125 0.484375 11.300781 -0.234375 9.03125 -1.671875 C 6.769531 -3.109375 4.984375 -5.148438 3.671875 -7.796875 C 2.359375 -10.441406 1.703125 -13.503906 1.703125 -16.984375 Z M 27.046875 -16.921875 C 27.046875 -19.503906 26.328125 -21.539062 24.890625 -23.03125 C 23.453125 -24.53125 21.703125 -25.28125 19.640625 -25.28125 C 17.585938 -25.28125 15.84375 -24.539062 14.40625 -23.0625 C 12.96875 -21.59375 12.25 -19.566406 12.25 -16.984375 C 12.25 -14.390625 12.96875 -12.332031 14.40625 -10.8125 C 15.84375 -9.300781 17.585938 -8.546875 19.640625 -8.546875 C 21.703125 -8.546875 23.453125 -9.289062 24.890625 -10.78125 C 26.328125 -12.28125 27.046875 -14.328125 27.046875 -16.921875 Z M 27.046875 -16.921875 "/></g></g></g><g fill="#00bee8" fill-opacity="1"><g transform="translate(267.881427, 58.073201)"><g><path d="M 14.125 -44.875 L 14.125 0 L 3.765625 0 L 3.765625 -44.875 Z M 14.125 -44.875 "/></g></g></g></svg>